<?xml version="1.0" encoding="utf-8"?>
<!-- Svg Vector Icons : http://www.onlinewebfonts.com/icon -->
<!DOCTYPE svg PUBLIC "-//W3C//DTD SVG 1.1//EN" "http://www.w3.org/Graphics/SVG/1.1/DTD/svg11.dtd">
<svg version="1.1" xmlns="http://www.w3.org/2000/svg" xmlns:xlink="http://www.w3.org/1999/xlink" x="0px" y="0px" viewBox="0 0 1000 1000" enable-background="new 0 0 1000 1000" xml:space="preserve">
<metadata> Svg Vector Icons : http://www.onlinewebfonts.com/icon </metadata>
<g><path d="M210.2,521.9l481.4,457.5c7.4,7.1,14.8,10.6,24.1,10.6c7.3,0,16.7-3.5,24-10.6l50-47.5c7.4-7.1,11.1-14.1,11.1-22.9s-3.7-15.8-11.1-22.8L384.3,500.9l405.5-387.1c7.4-5.3,11.1-14.1,11.1-22.9c0-7.1-3.7-15.8-11.1-21.1l-50-49.3c-7.3-7.1-16.7-10.5-24-10.5c-9.3,0-16.7,3.4-24.1,10.5L210.2,478c-7.4,5.3-11.1,14.1-11.1,22.9C199.1,507.9,202.8,516.7,210.2,521.9"/></g>
</svg>