<?xml version="1.0" encoding="utf-8"?>
<!-- Svg Vector Icons : http://www.onlinewebfonts.com/icon -->
<!DOCTYPE svg PUBLIC "-//W3C//DTD SVG 1.1//EN" "http://www.w3.org/Graphics/SVG/1.1/DTD/svg11.dtd">
<svg version="1.1" xmlns="http://www.w3.org/2000/svg" xmlns:xlink="http://www.w3.org/1999/xlink" x="0px" y="0px" viewBox="0 0 1000 1000" enable-background="new 0 0 1000 1000" xml:space="preserve">
<metadata> Svg Vector Icons : http://www.onlinewebfonts.com/icon </metadata>
<g><path d="M915.9,952.3v-904c0-19.4-15.7-35-35-35s-35,15.7-35,35v904c0,19.4,15.7,35,35,35S915.9,971.7,915.9,952.3L915.9,952.3z"/><path d="M208.6,907L208.6,907l442.7-362.5c30-24.5,30-64.5,0-89.1L208.6,92.9c-30-24.5-54.4-13.1-54.4,25.6v763C154.2,920.5,178.5,931.6,208.6,907L208.6,907L208.6,907z M252.9,961.2L252.9,961.2c-75.7,62-168.9,18.5-168.9-79.8v-763c0-98,93.2-141.7,168.9-79.8l442.7,362.5c64.3,52.6,64.2,144.9,0,197.5L252.9,961.2z"/></g>
</svg>