<?xml version="1.0" encoding="utf-8"?>
<!-- Svg Vector Icons : http://www.onlinewebfonts.com/icon -->
<!DOCTYPE svg PUBLIC "-//W3C//DTD SVG 1.1//EN" "http://www.w3.org/Graphics/SVG/1.1/DTD/svg11.dtd">
<svg version="1.1" xmlns="http://www.w3.org/2000/svg" xmlns:xlink="http://www.w3.org/1999/xlink" x="0px" y="0px" viewBox="0 0 1000 1000" enable-background="new 0 0 1000 1000" xml:space="preserve">
<metadata> Svg Vector Icons : http://www.onlinewebfonts.com/icon </metadata>
<g><path d="M806.3,10c-4.2,0-159,0-163.3,0c-27,0-48.8,21.9-48.8,48.8c0,4.2,0,878.1,0,882.3c0,27,21.9,48.8,48.8,48.8c4.2,0,159,0,163.3,0c27,0,48.8-21.9,48.8-48.8c0-4.2,0-878.1,0-882.3C855.2,31.9,833.3,10,806.3,10z"/><path d="M356.9,10c-4.2,0-159,0-163.3,0c-27,0-48.8,21.9-48.8,48.8c0,4.2,0,878.1,0,882.3c0,27,21.9,48.8,48.8,48.8c4.2,0,159,0,163.3,0c27,0,48.8-21.9,48.8-48.8c0-4.2,0-878.1,0-882.3C405.8,31.9,383.9,10,356.9,10z"/></g>
</svg>