<?xml version="1.0" encoding="utf-8"?>
<!-- Svg Vector Icons : http://www.onlinewebfonts.com/icon -->
<!DOCTYPE svg PUBLIC "-//W3C//DTD SVG 1.1//EN" "http://www.w3.org/Graphics/SVG/1.1/DTD/svg11.dtd">
<svg version="1.1" xmlns="http://www.w3.org/2000/svg" xmlns:xlink="http://www.w3.org/1999/xlink" x="0px" y="0px" viewBox="0 0 1000 1000" enable-background="new 0 0 1000 1000" xml:space="preserve">
<metadata> Svg Vector Icons : http://www.onlinewebfonts.com/icon </metadata>
<g><path d="M191.4,990c-60.9,0-102.3-48.9-102.3-121.7V131.7C89.1,58.9,130.5,10,191.5,10c23.3,0,47.9,7.2,72.5,21.5l579.7,368.9c42.9,24.7,67.1,60.4,67.1,99.7c0,39.3-24.1,74.9-68,100.2L265.1,967.9C239.3,982.8,214.7,990,191.4,990z M191.5,69.6c-38.2,0-42.7,43.5-42.7,62.2v736.5c0,18.7,4.6,62.2,42.7,62.2c12.5,0,27.5-4.7,42.7-13.5l577.7-367.6c25.4-14.7,39.4-32.4,39.4-49.3c0-16.9-14-34.7-38.3-48.7L233.1,82.4C218.9,74.3,204,69.6,191.5,69.6z"/><path d="M487.5,693c-5,0-9.8-2.5-12.6-7c-4.4-7-2.3-16.1,4.7-20.5l8-5.1c7-4.4,16.2-2.3,20.5,4.7c4.4,7,2.3,16.1-4.7,20.5l-8,5.1C493,692.2,490.2,693,487.5,693z"/><path d="M269.3,830.2c-5,0-9.8-2.5-12.6-7c-4.4-7-2.3-16.2,4.7-20.5l167.2-105.2c7-4.3,16.1-2.3,20.5,4.7c4.4,7,2.3,16.2-4.7,20.5L277.3,827.9C274.8,829.5,272,830.2,269.3,830.2z"/></g>
</svg>