<?xml version="1.0" encoding="utf-8"?>
<!-- Svg Vector Icons : http://www.onlinewebfonts.com/icon -->
<!DOCTYPE svg PUBLIC "-//W3C//DTD SVG 1.1//EN" "http://www.w3.org/Graphics/SVG/1.1/DTD/svg11.dtd">
<svg version="1.1" xmlns="http://www.w3.org/2000/svg" xmlns:xlink="http://www.w3.org/1999/xlink" x="0px" y="0px" viewBox="0 0 1000 1000" enable-background="new 0 0 1000 1000" xml:space="preserve">
<metadata> Svg Vector Icons : http://www.onlinewebfonts.com/icon </metadata>
<g><path d="M845.1,10c-18.7,0-37.5,6-54.5,17.3L201.5,420c-28.3,18.9-44.5,48-44.5,80s16.2,61.2,44.5,80l589.1,392.7c17,11.3,35.8,17.3,54.5,17.3c50,0,87.7-40.1,87.7-93.3V103.3C932.7,50.1,895.1,10,845.1,10z M860.6,896.7c0,13.5-6.3,21.2-15.5,21.2c-4.3,0-9.2-1.7-14.5-5.2L241.5,520c-16.5-11-16.5-29,0-40L830.6,87.3c5.2-3.5,10.2-5.2,14.5-5.2c9.2,0,15.5,7.7,15.5,21.2V896.7z M103.3,31.2c-19.9,0-36.1,16.2-36.1,36.1v865.5c0,19.9,16.2,36.1,36.1,36.1c19.9,0,36.1-16.1,36.1-36.1V67.3C139.4,47.4,123.2,31.2,103.3,31.2z"/></g>
</svg>